Coordinates
version=1
nRows=26
nColumns=24
inDegrees=yes

Units are S.I. units (second, meters, Newtons, ...)
Angles are in degrees.

endheader
time	pelvis_tilt	pelvis_list	pelvis_rotation	pelvis_tx	pelvis_ty	pelvis_tz	hip_flexion_r	hip_adduction_r	hip_rotation_r	knee_angle_r	ankle_angle_r	subtalar_angle_r	mtp_angle_r	hip_flexion_l	hip_adduction_l	hip_rotation_l	knee_angle_l	ankle_angle_l	subtalar_angle_l	mtp_angle_l	lumbar_extension	lumbar_bending	lumbar_rotation
      3.83500000	     -9.27539916	      6.77224770	     -2.56017500	     -0.77940861	     -0.01550467	     -0.29136540	     27.05693387	    -10.82530865	     -4.92887727	    -65.00010699	    -12.43260036	     -1.44430786	     19.41876571	     14.37352846	     11.73490890	      9.86049807	    -14.67718061	      5.38380412	      0.81568896	    -13.14090893	     10.80477066	    -10.58023301	     -3.53140046
      3.84000000	     -9.21981287	      6.42294757	     -2.39192896	     -0.77327966	     -0.01466252	     -0.29190563	     27.66822299	    -10.51720134	     -5.26205247	    -64.47497248	    -11.85398049	     -1.06828573	     19.74542534	     13.54119884	     11.46319528	     10.40304522	    -14.16797132	      5.54218936	      0.53100146	    -13.47731158	     10.66510439	    -10.24454482	     -3.89577173
      3.84500000	     -9.16969031	      6.07688687	     -2.21916783	     -0.76718882	     -0.01390505	     -0.29243515	     28.27039990	    -10.21541630	     -5.61032545	    -63.88613833	    -11.27921315	     -0.67420468	     20.02987546	     12.73036170	     11.18352755	     10.92350438	    -13.67560621	      5.71868943	      0.27877911	    -13.81259766	     10.52890194	     -9.91245364	     -4.25087093
      3.85000000	     -9.11927955	      5.74009005	     -2.04065618	     -0.76112062	     -0.01322765	     -0.29295515	     28.85459225	     -9.92780169	     -5.97225388	    -63.23299086	    -10.70394389	     -0.26819303	     20.26886581	     11.93089188	     10.90301870	     11.43135552	    -13.19550009	      5.90915716	      0.05072441	    -14.16111262	     10.39521968	     -9.59258746	     -4.60287329
      3.85500000	     -9.08208632	      5.41579492	     -1.86046497	     -0.75507106	     -0.01265194	     -0.29346110	     29.43771503	     -9.65085140	     -6.33453723	    -62.51930686	    -10.13030454	      0.13730320	     20.45133200	     11.16268078	     10.62228066	     11.88468361	    -12.73237442	      6.11265414	     -0.11652045	    -14.46244067	     10.27827137	     -9.28824570	     -4.95508382
      3.86000000	     -9.05583417	      5.10467851	     -1.68107887	     -0.74903666	     -0.01216018	     -0.29396775	     30.01618832	     -9.38891721	     -6.70177151	    -61.74013793	     -9.57649656	      0.53613651	     20.57993598	     10.42307937	     10.34485009	     12.26501314	    -12.28246016	      6.30226762	     -0.24311085	    -14.71701567	     10.17838913	     -8.99189805	     -5.29663905
      3.86500000	     -9.09043495	      4.81793175	     -1.57784933	     -0.74302601	     -0.01187805	     -0.29426586	     30.67811500	     -9.07989252	     -6.96767897	    -60.92139429	     -9.06753825	      0.84015630	     20.67310963	      9.76461619	     10.05271759	     12.55549522	    -11.84028831	      6.54590102	     -0.29006865	    -14.80624433	     10.16236814	     -8.72091867	     -5.50561872
      3.87000000	     -8.96999520	      4.57050985	     -1.29800885	     -0.73701927	     -0.01149189	     -0.29484473	     31.08932484	     -8.94618315	     -7.42103418	    -60.02691543	     -8.43019594	      1.26569880	     20.69914360	      8.92108656	      9.84880339	     13.08888178	    -11.38839507	      6.73981152	     -0.42479788	    -15.13500591	      9.94032329	     -8.52359168	     -5.96192932
      3.87500000	     -8.94059774	      4.32992358	     -1.11549776	     -0.73100857	     -0.01129830	     -0.29525376	     31.61267601	     -8.74246691	     -7.76470214	    -59.07614110	     -7.87267979	      1.61456584	     20.66561139	      8.19835757	      9.61585075	     13.44391144	    -10.95390539	      6.96299219	     -0.50524848	    -15.37668883	      9.84744333	     -8.31319343	     -6.27546585
      3.88000000	     -8.93374832	      4.11461080	     -0.94246073	     -0.72500195	     -0.01121886	     -0.29563198	     32.14662955	     -8.55737969	     -8.09620060	    -58.06610081	     -7.34989715	      1.93543361	     20.62300548	      7.51634328	      9.39890944	     13.70660117	    -10.53308161	      7.17407460	     -0.52964375	    -15.53324417	      9.78544563	     -8.12548379	     -6.56708165
      3.88500000	     -8.89336698	      3.93255019	     -0.75322048	     -0.71903981	     -0.01123356	     -0.29594715	     32.62452149	     -8.39795479	     -8.40754286	    -57.00595587	     -6.78744061	      2.23703038	     20.52502602	      6.80546739	      9.20894665	     14.04170341	    -10.12726519	      7.42413114	     -0.54340619	    -15.67757985	      9.68056789	     -7.99344288	     -6.86790951
      3.89000000	     -8.86913516	      3.76727857	     -0.57214114	     -0.71306441	     -0.01133636	     -0.29624738	     33.09840984	     -8.25108970	     -8.71203280	    -55.88150175	     -6.24391287	      2.54059590	     20.39545782	      6.12023031	      9.03155731	     14.31198900	     -9.72723550	      7.65259014	     -0.55079451	    -15.80431337	      9.59785450	     -7.87122998	     -7.15253115
      3.89500000	     -8.88038050	      3.61926394	     -0.41816205	     -0.70709229	     -0.01156934	     -0.29650314	     33.59898448	     -8.10602052	     -8.99555522	    -54.69755648	     -5.73484982	      2.83357128	     20.29806819	      5.48734384	      8.86546227	     14.49473613	     -9.34009598	      7.87664136	     -0.54807379	    -15.86896037	      9.56184812	     -7.76098592	     -7.39822617
      3.90000000	     -8.84055577	      3.49847560	     -0.22550170	     -0.70113742	     -0.01182435	     -0.29674844	     34.00627606	     -7.99544533	     -9.27145192	    -53.44904046	     -5.18618771	      3.15976857	     20.13044785	      4.80317002	      8.72522709	     14.75553846	     -8.96747877	      8.11348038	     -0.52714850	    -15.93948975	      9.46606705	     -7.69698294	     -7.68856385
      3.90500000	     -8.83639338	      3.38864489	     -0.06148434	     -0.69519311	     -0.01218506	     -0.29694004	     34.43463969	     -7.87679757	     -9.52638936	    -52.13399238	     -4.65381153	      3.49770907	     19.97280264	      4.17191628	      8.59157749	     14.93330640	     -8.61017258	      8.33537828	     -0.51358019	    -15.99065721	      9.41352268	     -7.63544034	     -7.92643959
      3.91000000	     -8.84241917	      3.29188782	      0.09415793	     -0.68926785	     -0.01262664	     -0.29708115	     34.85147510	     -7.75739572	     -9.75542059	    -50.75692962	     -4.12931793	      3.87129135	     19.83043462	      3.56027498	      8.46523007	     15.09223341	     -8.26424715	      8.56361424	     -0.48106902	    -16.01462076	      9.36720814	     -7.59600547	     -8.15595650
      3.91500000	     -8.84848574	      3.20733011	      0.24974626	     -0.68334511	     -0.01312851	     -0.29722352	     35.23827434	     -7.64592260	     -9.96535116	    -49.31287486	     -3.60386679	      4.29608503	     19.69318160	      2.95534019	      8.35058027	     15.22760718	     -7.92824603	      8.79748396	     -0.43531330	    -16.02111650	      9.32500249	     -7.56183109	     -8.38381976
      3.92000000	     -8.83021731	      3.13289903	      0.41098197	     -0.67748230	     -0.01364601	     -0.29731174	     35.56905415	     -7.53067615	    -10.13699639	    -47.80358372	     -3.06596570	      4.80086322	     19.51002559	      2.33748603	      8.24039523	     15.36249159	     -7.61052133	      9.03324276	     -0.36318801	    -16.02567121	      9.24017477	     -7.55456355	     -8.64719182
      3.92500000	     -8.84314963	      3.06009132	      0.55070927	     -0.67160378	     -0.01424612	     -0.29738686	     35.90442085	     -7.40575727	    -10.29362850	    -46.22637914	     -2.54082870	      5.36287466	     19.35523925	      1.76196686	      8.13202221	     15.43510480	     -7.30599434	      9.27416969	     -0.28245142	    -16.00940853	      9.19989216	     -7.53664553	     -8.86328894
      3.93000000	     -8.88819647	      2.98649584	      0.66834396	     -0.66570940	     -0.01492702	     -0.29740955	     36.24445573	     -7.26672394	    -10.44170774	    -44.58178588	     -2.03885862	      5.98187211	     19.26365148	      1.22792998	      8.01887258	     15.46071018	     -7.01163782	      9.51526817	     -0.19178540	    -15.96759836	      9.19863726	     -7.51559899	     -9.03437138
      3.93500000	     -8.88049784	      2.91879488	      0.81017604	     -0.65990046	     -0.01557601	     -0.29744193	     36.48700372	     -7.12816044	    -10.52806821	    -42.87047372	     -1.51887360	      6.71483195	     19.12121334	      0.66041797	      7.91139416	     15.48171722	     -6.75435057	      9.77345281	     -0.03612690	    -15.90433372	      9.11748572	     -7.50787177	     -9.28976499
      3.94000000	     -9.00296804	      2.83713145	      0.88363727	     -0.65409248	     -0.01639550	     -0.29736189	     36.84942409	     -6.91246608	    -10.50897605	    -41.07888559	     -1.13334926	      7.39665269	     19.08440755	      0.24632890	      7.78929962	     15.46536926	     -6.51611011	     10.01265867	      0.02716984	    -15.83727385	      9.19289334	     -7.47248032	     -9.42434908
      3.94500000	     -8.98743301	      2.75897268	      1.01874534	     -0.64820377	     -0.01710309	     -0.29737910	     37.00246925	     -6.77762880	    -10.63361434	    -39.25298948	     -0.61342405	      8.33393794	     18.99468957	     -0.32814886	      7.66368720	     15.41652987	     -6.26366467	     10.28418530	      0.26829686	    -15.73000101	      9.11862760	     -7.45219624	     -9.64642633
      3.95000000	     -9.07970532	      2.66390529	      1.10553725	     -0.64245464	     -0.01794656	     -0.29732136	     37.24827692	     -6.54262945	    -10.53365690	    -37.34108675	     -0.25450161	      9.15115012	     18.91612701	     -0.72928399	      7.53440726	     15.36884718	     -6.10917042	     10.55553624	      0.38867335	    -15.62630777	      9.14167685	     -7.39870504	     -9.82215002
      3.95500000	     -8.99283067	      2.56598936	      1.25729254	     -0.63663764	     -0.01862593	     -0.29730434	     37.23656557	     -6.36630006	    -10.54639622	    -35.40148794	      0.24585598	     10.13852659	     18.69142873	     -1.32253296	      7.38496360	     15.23400718	     -5.96047465	     10.89506664	      0.80075528	    -15.44596061	      8.96604388	     -7.36631303	    -10.12681256
      3.96000000	     -9.01801372	      2.44156947	      1.35400756	     -0.63082326	     -0.01944325	     -0.29720110	     37.31783326	     -6.10300099	    -10.41042964	    -33.40480499	      0.60609573	     11.01394611	     18.42754341	     -1.77059618	      7.21080702	     15.08439977	     -5.85716460	     11.23971405	      1.15249409	    -15.27248357	      8.92131882	     -7.29203174	    -10.34120540
